<svg width="41" height="40" viewBox="0 0 41 40" fill="none" xmlns="http://www.w3.org/2000/svg">
<g style="mix-blend-mode:multiply" opacity="0.7">
<path d="M20.7183 39.8551C31.6826 39.8551 40.5708 30.9669 40.5708 20.0026C40.5708 9.03841 31.6826 0.150146 20.7183 0.150146C9.75411 0.150146 0.865845 9.03841 0.865845 20.0026C0.865845 30.9669 9.75411 39.8551 20.7183 39.8551Z" fill="#565656"/>
</g>
<path d="M24.0244 12.1507C23.9151 12.0407 23.7851 11.9534 23.6419 11.8938C23.4987 11.8341 23.3451 11.8035 23.1899 11.8035C23.0348 11.8035 22.8812 11.8341 22.738 11.8938C22.5948 11.9534 22.4648 12.0407 22.3555 12.1507L15.3936 19.1603C15.1948 19.3772 15.0845 19.6608 15.0845 19.9551C15.0845 20.2493 15.1948 20.5329 15.3936 20.7498L22.1488 27.505C22.3658 27.7039 22.6493 27.8142 22.9436 27.8142C23.2378 27.8142 23.5214 27.7039 23.7383 27.505C23.8508 27.3955 23.9402 27.2645 24.0012 27.1198C24.0622 26.9751 24.0937 26.8197 24.0937 26.6626C24.0937 26.5056 24.0622 26.3502 24.0012 26.2055C23.9402 26.0608 23.8508 25.9298 23.7383 25.8202L18.6838 20.7498C18.4779 20.5365 18.3628 20.2515 18.3628 19.9551C18.3628 19.6586 18.4779 19.3737 18.6838 19.1603L23.9926 13.8356C24.1072 13.7281 24.1991 13.5988 24.2628 13.4553C24.3266 13.3118 24.361 13.1569 24.364 12.9999C24.3669 12.8428 24.3384 12.6868 24.2801 12.541C24.2218 12.3951 24.1348 12.2624 24.0244 12.1507Z" fill="white"/>
</svg>
