<svg width="32" height="31" viewBox="0 0 32 31" fill="none" xmlns="http://www.w3.org/2000/svg">
<path d="M1.59309 3.67017C0.745108 3.67017 0.109131 4.30618 0.109131 5.15415V24.8696C0.109131 25.7176 0.533133 26.3536 1.38111 26.3536C2.22909 26.3536 2.86507 25.9297 2.86507 25.0817C2.86507 24.8697 2.86507 24.8697 2.86507 24.6577V4.94221C3.07706 4.30623 2.44107 3.67017 1.59309 3.67017ZM29.7884 3.67017C28.9404 3.67017 28.3044 4.30618 28.3044 5.15415V24.8696C28.3044 25.7176 28.7284 26.3536 29.5764 26.3536C30.4244 26.3536 31.0603 25.9297 31.0603 25.0817C31.0603 24.8697 31.0603 24.8697 31.0603 24.6577V4.94221C31.2723 4.30623 30.6364 3.67017 29.7884 3.67017Z" fill="white"/>
<path d="M24.2768 0.0666504H7.31721C6.25724 0.0666504 5.40924 0.914681 5.40924 1.97465V28.262C5.40924 29.322 6.25724 30.1699 7.31721 30.1699H24.2768C25.3368 30.1699 26.1847 29.322 26.1847 28.262V1.97465C26.1847 0.914681 25.3368 0.0666504 24.2768 0.0666504ZM16.2209 26.1421H9.64913C9.01315 26.1421 8.37718 25.7181 8.37718 25.0821C8.37718 25.0821 8.37718 25.082 8.37718 24.87C8.37718 24.2341 9.01315 23.5981 9.64913 23.5981H16.2209C16.8569 23.5981 17.4929 24.2341 17.4929 24.87C17.4929 25.506 17.0689 26.1421 16.2209 26.1421C16.2209 26.1421 16.4329 26.1421 16.2209 26.1421ZM21.0969 21.4782H9.86114C9.22516 21.4782 8.58916 21.0542 8.58916 20.4182C8.58916 19.7822 9.01315 19.1462 9.64913 19.1462H9.86114H21.0969C21.7328 19.1462 22.1568 19.7822 22.1568 20.4182C21.9448 21.0542 21.5209 21.4782 21.0969 21.4782ZM21.5208 12.1504H10.0731C9.64913 12.1504 9.01314 11.7265 9.01314 11.3025C9.01314 11.0905 9.01316 10.8785 9.22515 10.8785L10.9211 8.12255C11.1331 7.69856 11.5571 7.48649 11.9811 7.91048C12.193 7.91048 12.1931 8.12255 12.1931 8.12255L13.6771 10.6664L17.069 5.36652C17.281 4.94253 17.9169 4.94258 18.3409 5.15457L18.5529 5.36652L22.1568 10.6664C22.3688 11.0904 22.3688 11.7264 21.9448 11.9384C21.9448 12.1504 21.7328 12.1504 21.5208 12.1504Z" fill="white"/>
</svg>
