<svg width="36" height="36" viewBox="0 0 36 36" fill="none" xmlns="http://www.w3.org/2000/svg">
<path d="M18.0003 34.28C18.6302 34.2655 19.2348 34.0287 19.7069 33.6114C20.1791 33.1942 20.4884 32.6234 20.5803 32H15.3203C15.4148 32.6403 15.7386 33.2245 16.2316 33.6439C16.7246 34.0633 17.3531 34.2894 18.0003 34.28V34.28Z" fill="white"/>
<path d="M32.8498 28.1299L32.5098 27.8299C31.5452 26.9705 30.701 25.985 29.9998 24.8999C29.234 23.4024 28.7751 21.7671 28.6498 20.0899V15.1499C28.6457 14.5499 28.5922 13.9512 28.4898 13.3599C26.7959 13.0117 25.2744 12.0889 24.1828 10.7477C23.0912 9.40644 22.4967 7.7292 22.4998 5.9999V5.3699C21.4557 4.85609 20.334 4.51821 19.1798 4.3699V3.1099C19.1798 2.75584 19.0392 2.41628 18.7888 2.16591C18.5384 1.91555 18.1989 1.7749 17.8448 1.7749C17.4907 1.7749 17.1512 1.91555 16.9008 2.16591C16.6505 2.41628 16.5098 2.75584 16.5098 3.1099V4.4199C13.9255 4.78446 11.5604 6.07165 9.85103 8.04384C8.14167 10.016 7.20353 12.54 7.2098 15.1499V20.0899C7.08456 21.7671 6.62558 23.4024 5.8598 24.8999C5.17069 25.9823 4.34 26.9676 3.3898 27.8299L3.0498 28.1299V30.9499H32.8498V28.1299Z" fill="white"/>
<path d="M30 11C32.7614 11 35 8.76142 35 6C35 3.23858 32.7614 1 30 1C27.2386 1 25 3.23858 25 6C25 8.76142 27.2386 11 30 11Z" fill="#C2272D"/>
</svg>
