<svg width="44" height="43" viewBox="0 0 44 43" fill="none" xmlns="http://www.w3.org/2000/svg">
<path opacity="0.7" d="M21.8163 42.7877C33.583 42.7877 43.1218 33.2489 43.1218 21.4822C43.1218 9.71554 33.583 0.176758 21.8163 0.176758C10.0497 0.176758 0.510895 9.71554 0.510895 21.4822C0.510895 33.2489 10.0497 42.7877 21.8163 42.7877Z" fill="#565656"/>
<path d="M21.8163 8.44482C14.6615 8.44482 8.93765 14.1687 8.93765 21.3235C8.93765 28.4783 14.6615 34.2022 21.8163 34.2022C28.9711 34.2022 34.695 28.4783 34.695 21.3235C34.695 14.3277 28.9711 8.44482 21.8163 8.44482ZM21.8163 11.6247C23.8833 11.6247 25.4732 13.2147 25.4732 15.2816C25.4732 17.3486 23.8833 18.9386 21.8163 18.9386C19.7494 18.9386 18.1594 17.3486 18.1594 15.2816C18.0004 13.3737 19.7494 11.6247 21.8163 11.6247ZM26.7452 28.9553H16.7284C16.2515 28.9553 15.7745 28.7963 15.4565 28.4783C15.1385 28.1603 14.9795 27.6833 14.9795 27.2063C14.8205 23.3904 17.6824 20.2105 21.4983 20.0515C25.3142 19.8925 28.4941 22.7545 28.6531 26.5704C28.6531 26.7294 28.6531 27.0473 28.6531 27.2063C28.6531 28.1603 27.8582 28.9553 26.7452 28.9553Z" fill="white"/>
</svg>
