<svg width="33" height="28" viewBox="0 0 33 28" fill="none" xmlns="http://www.w3.org/2000/svg">
<path d="M27.7962 12.72C27.7962 13.1409 27.7962 13.3515 27.7962 13.562C27.7962 17.9821 27.7962 22.4023 27.7962 26.8225C27.7962 27.4539 27.7962 27.4539 27.1648 27.4539H5.69527C4.85333 27.4539 4.85335 27.4539 4.85335 26.8225V12.5095L2.32751 14.1934L0.433145 15.4562C0.22266 15.6667 0.0121846 15.6668 -0.1983 15.2458C-0.829756 14.4039 -1.25073 13.5619 -1.88219 12.72C-2.09267 12.299 -2.09268 12.299 -1.67171 12.0885L7.16868 6.40541C9.6945 4.72153 12.4308 3.0376 14.9566 1.35372C15.7986 0.722263 17.0615 0.722263 17.9034 1.35372C23.376 4.93196 28.8486 8.51029 34.5317 12.0885C34.9527 12.299 34.9527 12.5095 34.7422 13.141C34.1108 13.9829 33.6898 14.6143 33.2688 15.4562C33.0583 15.8772 32.8479 15.8773 32.4269 15.6668C31.164 14.8249 29.6906 13.9828 28.4277 12.9304L27.7962 12.72ZM16.43 23.4547H23.1655C23.5865 23.4547 23.797 23.2442 23.797 22.8232C23.797 18.6135 23.797 14.6144 23.797 10.4047C23.797 9.98371 23.5865 9.77317 23.376 9.56269C21.2712 8.08929 18.9558 6.82638 16.851 5.35299C16.6405 5.1425 16.2195 5.1425 16.009 5.35299L9.48401 9.56269C9.27353 9.77317 9.06305 9.98371 9.06305 10.4047C9.06305 14.6144 9.06305 18.6135 9.06305 22.8232C9.06305 23.2442 9.27352 23.4547 9.69449 23.4547H16.43Z" fill="white"/>
</svg>
