<svg width="169" height="170" viewBox="0 0 169 170" fill="none" xmlns="http://www.w3.org/2000/svg">
<path d="M84.5014 168.097C130.269 168.097 167.37 130.996 167.37 85.2286C167.37 39.4615 130.269 2.35986 84.5014 2.35986C38.7343 2.35986 1.63272 39.4615 1.63272 85.2286C1.63272 130.996 38.7343 168.097 84.5014 168.097Z" stroke="white" stroke-width="3.17992" stroke-miterlimit="10"/>
<path d="M89.0644 83.8134C89.0644 84.354 89.0644 84.7356 89.0644 85.133V94.1163C89.0644 95.5473 88.6193 96.0084 87.2201 96.0243C83.9448 96.0243 83.9289 96.0243 83.9448 92.9715C83.9448 87.7406 83.9448 82.5255 83.9448 77.2945C83.8768 76.8281 83.9535 76.352 84.1644 75.9305C84.3754 75.5089 84.7105 75.1622 85.1246 74.9369C85.5386 74.7117 86.0118 74.6188 86.4803 74.6708C86.9488 74.7228 87.3901 74.9171 87.7448 75.2276C89.0103 76.1904 90.196 77.2538 91.2904 78.4075C93.9456 81.015 96.5691 83.6544 99.2402 86.2619C99.431 86.4527 99.6377 86.5958 100.035 86.9138V76.6268C100.035 75.0368 100.401 74.7506 101.927 74.7188C105.409 74.7188 105.107 74.7188 105.107 77.8987C105.107 83.135 105.107 88.3607 105.107 93.5757C105.107 94.5774 104.932 95.5473 103.994 95.9766C103.536 96.2033 103.018 96.2807 102.513 96.198C102.008 96.1153 101.542 95.8766 101.18 95.5155C99.272 93.7506 97.3958 91.9222 95.5356 90.0937L89.0644 83.8134Z" fill="white"/>
<path d="M125.84 85.4672L131.644 91.3978C132.534 92.3041 133.456 93.1785 134.315 94.1166C134.537 94.371 134.76 94.8957 134.649 95.1183C134.537 95.3409 133.997 96.0087 133.599 96.0405C132.377 96.231 131.133 96.231 129.911 96.0405C128.961 95.7785 128.095 95.2745 127.398 94.5777C125.618 92.9877 123.932 91.2388 122.183 89.5216L118.781 92.8764C117.97 93.6714 117.191 94.5777 116.364 95.2773C115.807 95.6793 115.155 95.9312 114.472 96.0087C113.415 96.1174 112.349 96.1174 111.292 96.0087C110.863 96.0087 110.179 95.6907 110.116 95.4045C110.052 95.1311 110.049 94.8472 110.106 94.5725C110.164 94.2979 110.281 94.0391 110.449 93.8145C112.039 92.0974 113.629 90.4438 115.331 88.7585C116.269 87.8045 117.191 86.8346 118.177 85.9124C118.685 85.4513 118.59 85.1492 118.177 84.7041C115.665 82.1601 113.158 79.6003 110.656 77.0245C110.227 76.5953 109.623 76.1978 109.957 75.4346C110.29 74.6714 110.99 74.7827 111.642 74.6555C112.873 74.372 114.161 74.473 115.332 74.9451C116.504 75.4171 117.502 76.2372 118.193 77.2948C119.273 78.4798 120.442 79.5801 121.69 80.5861C121.756 80.6812 121.844 80.7589 121.947 80.8126C122.049 80.8663 122.163 80.8943 122.279 80.8943C122.394 80.8943 122.508 80.8663 122.611 80.8126C122.713 80.7589 122.801 80.6812 122.867 80.5861C124.362 79.1074 125.936 77.6923 127.383 76.1501C127.814 75.6126 128.369 75.1873 129 74.9105C129.631 74.6336 130.32 74.5134 131.008 74.5601C131.81 74.5598 132.612 74.6075 133.408 74.7032C133.896 74.837 134.316 75.1491 134.585 75.5777C134.712 75.7685 134.442 76.3727 134.188 76.6429C131.548 79.3936 128.877 82.1124 126.238 84.8471L125.84 85.4672Z" fill="white"/>
<path d="M47.7573 81.6192C47.7573 79.7749 47.7573 77.9305 47.7573 76.1021C47.7573 74.6711 48.2979 74.21 49.7289 74.21C50.3331 74.21 50.9372 74.21 51.5414 74.21C51.7269 74.2012 51.9122 74.2307 52.0857 74.2967C52.2593 74.3627 52.4174 74.4638 52.5501 74.5936C52.6829 74.7233 52.7875 74.8791 52.8574 75.0511C52.9273 75.2231 52.9611 75.4077 52.9565 75.5933C52.9565 79.8067 53.0519 84.036 52.7816 88.313C52.7493 90.172 52.0294 91.9532 50.7609 93.3127C49.4924 94.6722 47.7653 95.5136 45.913 95.6745C42.3832 96.1197 38.774 96.0402 35.2125 96.1674C34.5765 96.1674 34.3062 95.8176 34.3062 95.2134C34.3062 94.1322 34.3062 93.0669 34.3062 92.0335C34.3062 91 34.8627 91.0636 35.5305 91.0636C37.677 91.0636 39.8075 91.0636 41.8904 91.0636C42.8914 91.0325 43.8871 90.9047 44.8636 90.682C45.608 90.5875 46.2907 90.2193 46.7786 89.6492C47.2665 89.079 47.5247 88.3476 47.5029 87.5975C47.5029 85.6577 47.5029 83.718 47.5029 81.7782L47.7573 81.6192Z" fill="white"/>
<path d="M63.7523 78.2166L68.1565 83.845C69.0469 82.6525 69.8578 81.5714 70.6528 80.4743C71.7657 78.8843 72.8946 77.2944 73.9758 75.8157C74.1746 75.4837 74.4646 75.2157 74.8113 75.0437C75.158 74.8718 75.5468 74.8031 75.9314 74.8459C76.8218 74.8459 77.744 74.8459 78.6344 74.8459C78.8852 74.8574 79.1308 74.9214 79.3553 75.0336C79.5799 75.1459 79.7784 75.304 79.9381 75.4977C80.0039 75.7367 80.0166 75.9872 79.9754 76.2316C79.9342 76.4761 79.8401 76.7085 79.6996 76.9128C77.0126 80.5856 74.2461 84.2107 71.5909 87.8994C71.087 88.6718 70.7811 89.5565 70.7005 90.4752C70.5574 91.7948 70.7005 93.1463 70.7005 94.4818C70.7005 95.8174 70.2235 96.0718 69.1105 96.0718C68.4745 96.0718 67.8385 96.0718 67.2026 96.0718C66.1055 96.0718 65.6126 95.5471 65.6126 94.4818C65.6126 93.4166 65.6126 91.8743 65.6126 90.5706C65.6631 89.5976 65.3515 88.6404 64.7381 87.8835C63.482 86.2936 62.2896 84.7036 61.0335 83.1136C60.9482 83.0361 60.88 82.9416 60.8333 82.8362C60.7866 82.7308 60.7625 82.6168 60.7625 82.5015C60.7625 82.3862 60.7866 82.2722 60.8333 82.1668C60.88 82.0614 60.9482 81.9669 61.0335 81.8894C61.8921 80.6651 62.7666 79.4567 63.7523 78.2166Z" fill="white"/>
<path d="M58.6804 74.242C59.254 74.2452 59.8138 74.4189 60.2885 74.7409C60.7633 75.0629 61.1316 75.5188 61.3467 76.0506C61.5618 76.5824 61.614 77.1662 61.4966 77.7277C61.3792 78.2892 61.0976 78.8032 60.6875 79.2043C60.2774 79.6055 59.7574 79.8757 59.1934 79.9806C58.6294 80.0855 58.047 80.0204 57.52 79.7936C56.9931 79.5668 56.5455 79.1885 56.234 78.7068C55.9226 78.225 55.7613 77.6616 55.7707 77.088C55.7833 76.3261 56.0959 75.5999 56.6406 75.067C57.1854 74.5342 57.9184 74.2377 58.6804 74.242Z" fill="white"/>
</svg>
